<svg id="Layer_1" data-name="Layer 1" xmlns="http://www.w3.org/2000/svg" viewBox="0 0 2000 2000"><defs><style>.cls-1{fill:#fd017d;}</style></defs><path class="cls-1" d="M1000.85,403.83,484.54,701.92,963.46,978.41l40.93-23.63L566.44,701.92,1000.85,451.1l475.34,274.45v548.9L1000.85,1548.9l-518-297.49v47.19l518,297.57,516.28-298.09V701.92Z"/><path class="cls-1" d="M1407.77,765v469.89l-406.92,235-518-297.38v47.22l518,297.43,447.86-258.6V741.41Z"/><path class="cls-1" d="M1339.35,804.53v390.91l-338.5,195.44-518-297.21v47.18l518,297.3,379.44-219.08V780.9Z"/><path class="cls-1" d="M1270.93,844.05V1156l-270.08,155.94-518-297.07V1062l518,297.18,311-179.58V820.42Z"/><path class="cls-1" d="M1202.53,883.55v232.88l-201.68,116.45L482.87,936v47.16l518,297,242.62-140.09V859.91Z"/><path class="cls-1" d="M1134.11,923v153.9l-133.26,76.93-518-296.58V904.4l518,296.74,174.2-100.57V899.4Z"/><path class="cls-1" d="M1065.69,962.56v74.88l-64.84,37.45-518-296.31v47.08l518,296.5,105.78-61.08V938.92Z"/><polygon class="cls-1" points="838.79 821.87 904.97 860.08 971.14 821.87 904.97 783.66 838.79 821.87"/><polygon class="cls-1" points="939.05 764.03 1005.23 802.24 1071.41 764.03 1005.23 725.83 939.05 764.03"/><polygon class="cls-1" points="1039.31 706.2 1105.49 744.41 1171.67 706.2 1105.49 667.99 1039.31 706.2"/><polygon class="cls-1" points="1139.58 648.36 1205.76 686.57 1271.93 648.36 1205.76 610.15 1139.58 648.36"/><polygon class="cls-1" points="948.71 885.59 1014.89 923.8 1081.07 885.59 1014.89 847.38 948.71 885.59"/><polygon class="cls-1" points="1048.97 827.75 1115.15 865.96 1181.33 827.75 1115.15 789.54 1048.97 827.75"/><polygon class="cls-1" points="1381.39 715.61 1309.54 674.13 1149.69 766.37 1221.55 807.86 1381.39 715.61"/><path class="cls-1" d="M1000.83,482.83,617.81,704,795.6,806.61l383-221.14ZM795.59,759.32,699.66,704l301.17-173.87,95.93,55.4Z"/><polygon class="cls-1" points="1038.21 978.41 1038.18 976.31 1000.83 996.03 1000.83 1043.15 1038.21 1021.57 1038.21 978.41"/></svg>